<?xml version="1.0" encoding="iso-8859-1"?>
<!-- Generator: Adobe Illustrator 19.0.0, SVG Export Plug-In . SVG Version: 6.00 Build 0)  -->
<svg version="1.1" id="Layer_1" xmlns="http://www.w3.org/2000/svg" xmlns:xlink="http://www.w3.org/1999/xlink" x="0px" y="0px"
	 viewBox="0 0 511.999 511.999" style="enable-background:new 0 0 511.999 511.999;" xml:space="preserve">
<path style="fill:#B3B3B3;" d="M345.582,353.734c0,4.269,0,8.574,0,12.914c0,90.435-92.588,134.685-92.588,134.685V199.509h92.588
	c0,0,0,29.279,0,72.976C345.582,296.125,345.582,323.998,345.582,353.734z"/>
<path style="fill:#666666;" d="M313.116,89.834c19.876,16.978,32.466,42.218,32.466,70.403v37.937v1.334h-92.588h-92.599v-39.271
	c0-28.173,12.577-53.401,32.43-70.379c16.185-13.84,37.203-22.209,60.17-22.209C275.936,67.65,296.943,76.007,313.116,89.834z"/>
<path style="fill:#B3B3B3;" d="M252.995,199.509v301.824c0,0-92.599-44.25-92.599-134.685c0-5.459,0-10.882,0-16.233
	c0-28.414,0-55.036,0-77.762c0-37.143,0-63.898,0-71.172c0-1.298,0-1.972,0-1.972L252.995,199.509L252.995,199.509z"/>
<path d="M252.995,437.322c-5.89,0-10.667,4.775-10.667,10.667v8.818c0,5.891,4.777,10.667,10.667,10.667
	c5.89,0,10.667-4.775,10.667-10.667v-8.818C263.661,442.098,258.885,437.322,252.995,437.322z"/>
<path d="M78.04,261.987c-5.89,0-10.667,4.775-10.667,10.667c0,5.891,4.777,10.667,10.667,10.667h71.687v56.46
	c-26.918,0.651-52.132,11.442-71.247,30.556c-4.165,4.165-4.165,10.919,0,15.085c2.083,2.083,4.813,3.124,7.542,3.124
	s5.459-1.042,7.542-3.124c15.084-15.084,34.944-23.631,56.161-24.276v5.503c0,39.938,17.135,77.604,49.555,108.927
	c24.119,23.303,48.103,34.9,49.113,35.382c1.454,0.694,3.026,1.042,4.599,1.042c1.573,0,3.145-0.348,4.601-1.043
	c1.008-0.482,24.989-12.078,49.106-35.382c32.415-31.323,49.548-68.989,49.548-108.927v-2.199
	c23.284,0.501,45.094,9.773,61.595,26.285c2.083,2.084,4.814,3.126,7.545,3.126c2.729,0,5.457-1.041,7.539-3.122
	c4.167-4.164,4.17-10.917,0.005-15.085c-20.532-20.545-47.698-32.059-76.685-32.562v-59.94h77.712
	c5.89,0,10.667-4.775,10.667-10.667s-4.777-10.667-10.667-10.667h-77.712v-53.002c28.979-0.503,56.144-12.021,76.685-32.574
	c4.164-4.167,4.162-10.921-0.005-15.085c-4.165-4.163-10.918-4.162-15.085,0.004c-16.509,16.519-38.318,25.795-61.595,26.297
	v-27.222c0-28.561-11.776-55.669-32.466-75.151V58.259c0-12.953-5.043-25.129-14.198-34.285l-20.848-20.85
	c-4.166-4.165-10.918-4.165-15.086,0c-4.165,4.165-4.165,10.919,0,15.085l20.851,20.85c5.127,5.127,7.95,11.946,7.95,19.2v11.366
	c-15.07-8.224-32.067-12.643-49.455-12.643c-17.405,0-34.418,4.426-49.503,12.662V58.259c0-7.141,2.9-14.141,7.948-19.198
	l20.778-20.766c4.166-4.164,4.169-10.918,0.004-15.085c-4.165-4.166-10.919-4.17-15.086-0.004l-20.786,20.775
	c-9.152,9.167-14.192,21.341-14.192,34.278v26.855c-20.668,19.482-32.43,46.579-32.43,75.123v30.513
	c-21.225-0.645-41.086-9.188-56.161-24.265c-4.166-4.165-10.918-4.165-15.086,0c-4.165,4.165-4.165,10.919,0,15.085
	c19.107,19.106,44.321,29.894,71.247,30.544v49.871L78.04,261.987L78.04,261.987z M334.915,366.648
	c0,34.306-14.326,65.644-42.58,93.139c-15.744,15.322-31.718,25.188-39.342,29.469c-17.909-10.066-81.933-51.068-81.933-122.609
	V210.176h71.267v198.533c0,5.891,4.777,10.667,10.667,10.667s10.667-4.775,10.667-10.667V210.176h71.254V366.648z M171.061,160.238
	c0-23.978,10.46-46.675,28.695-62.272c14.818-12.671,33.724-19.649,53.237-19.649c19.46,0,38.313,6.945,53.103,19.554
	c0.108,0.094,0.212,0.19,0.323,0.279c18.111,15.589,28.494,38.198,28.494,62.089v28.605H171.061V160.238z"/>
<g>
</g>
<g>
</g>
<g>
</g>
<g>
</g>
<g>
</g>
<g>
</g>
<g>
</g>
<g>
</g>
<g>
</g>
<g>
</g>
<g>
</g>
<g>
</g>
<g>
</g>
<g>
</g>
<g>
</g>
</svg>
