<?xml version="1.0" encoding="iso-8859-1"?>
<!-- Generator: Adobe Illustrator 19.0.0, SVG Export Plug-In . SVG Version: 6.00 Build 0)  -->
<svg version="1.1" id="Layer_1" xmlns="http://www.w3.org/2000/svg" xmlns:xlink="http://www.w3.org/1999/xlink" x="0px" y="0px"
	 viewBox="0 0 512.002 512.002" style="enable-background:new 0 0 512.002 512.002;" xml:space="preserve">
<g>
	<path style="fill:#16153B;" d="M359.12,490.358c-46.007,0-83.435-37.428-83.435-83.437V232.687
		c0-65.146,53.004-118.146,118.154-118.146c65.156,0,118.163,53.003,118.163,118.152c0,59.553-44.526,109.951-103.572,117.228
		c-8.273,1.017-15.823-4.865-16.844-13.147c-1.021-8.282,4.865-15.824,13.148-16.844c43.925-5.414,77.048-42.917,77.048-87.235
		c0-48.487-39.451-87.933-87.944-87.933c-48.487,0-87.935,39.444-87.935,87.927v174.233c0,29.344,23.873,53.217,53.216,53.217
		c29.344,0,53.217-23.873,53.217-53.217c0-8.344,6.765-15.11,15.11-15.11s15.11,6.766,15.11,15.11
		C442.556,452.929,405.127,490.358,359.12,490.358z"/>
	<path style="fill:#16153B;" d="M152.88,490.358c-46.007,0-83.437-37.428-83.437-83.437c0-8.344,6.765-15.11,15.11-15.11
		s15.11,6.766,15.11,15.11c0,29.344,23.873,53.217,53.217,53.217c29.343,0,53.216-23.873,53.216-53.217V232.687
		c0-48.484-39.447-87.927-87.935-87.927c-48.491,0-87.942,39.447-87.942,87.933c0,44.318,33.123,81.821,77.048,87.235
		c8.282,1.021,14.168,8.563,13.148,16.844c-1.02,8.282-8.569,14.182-16.844,13.147C44.526,342.644,0,292.246,0,232.693
		c0-65.149,53.007-118.152,118.163-118.152c65.149,0,118.154,53,118.154,118.146V406.92
		C236.315,452.929,198.887,490.358,152.88,490.358z"/>
</g>
<path style="fill:#97C4E8;" d="M256,457.412L256,457.412c-17.053,0-31.005-13.952-31.005-31.005V189.972
	c0-17.053,13.952-31.005,31.005-31.005l0,0c17.053,0,31.005,13.952,31.005,31.005v236.435
	C287.006,443.46,273.053,457.412,256,457.412z"/>
<g>
	<path style="fill:#16153B;" d="M256,472.521c-25.428,0-46.116-20.687-46.116-46.116V189.972c0-25.428,20.687-46.116,46.116-46.116
		s46.116,20.687,46.116,46.116v236.433C302.116,451.833,281.428,472.521,256,472.521z M256,174.076
		c-8.765,0-15.897,7.132-15.897,15.897v236.433c0,8.765,7.132,15.897,15.897,15.897c8.765,0,15.897-7.132,15.897-15.897V189.972
		C271.897,181.207,264.765,174.076,256,174.076z"/>
	<path style="fill:#16153B;" d="M225.938,187.228c-6.988,0-13.263-4.876-14.767-11.986L182.537,39.883
		c-1.727-8.164,3.492-16.182,11.656-17.909c8.167-1.727,16.182,3.49,17.911,11.656l28.634,135.359
		c1.727,8.164-3.492,16.182-11.656,17.909C228.028,187.121,226.974,187.228,225.938,187.228z"/>
	<path style="fill:#16153B;" d="M286.062,187.228c-1.037,0-2.088-0.107-3.143-0.331c-8.164-1.727-13.381-9.744-11.656-17.909
		l28.634-135.359c1.729-8.165,9.747-13.38,17.911-11.656c8.164,1.727,13.381,9.744,11.656,17.909L300.83,175.242
		C299.325,182.354,293.05,187.228,286.062,187.228z"/>
</g>
<circle style="fill:#97C4E8;" cx="118.157" cy="229.259" r="37.774"/>
<path style="fill:#16153B;" d="M118.158,282.141c-29.16,0-52.884-23.724-52.884-52.883s23.724-52.883,52.884-52.883
	s52.884,23.724,52.884,52.883S147.318,282.141,118.158,282.141z M118.158,206.593c-12.497,0-22.664,10.167-22.664,22.664
	c0,12.497,10.167,22.664,22.664,22.664s22.664-10.167,22.664-22.664C140.823,216.76,130.656,206.593,118.158,206.593z"/>
<circle style="fill:#97C4E8;" cx="393.846" cy="229.259" r="37.774"/>
<path style="fill:#16153B;" d="M393.843,282.141c-29.16,0-52.884-23.724-52.884-52.883s23.724-52.883,52.884-52.883
	c29.16,0,52.884,23.724,52.884,52.883S423.003,282.141,393.843,282.141z M393.843,206.593c-12.497,0-22.664,10.167-22.664,22.664
	c0,12.497,10.167,22.664,22.664,22.664s22.664-10.167,22.664-22.664C416.507,216.76,406.34,206.593,393.843,206.593z"/>
<g>
</g>
<g>
</g>
<g>
</g>
<g>
</g>
<g>
</g>
<g>
</g>
<g>
</g>
<g>
</g>
<g>
</g>
<g>
</g>
<g>
</g>
<g>
</g>
<g>
</g>
<g>
</g>
<g>
</g>
</svg>
