<?xml version="1.0" encoding="iso-8859-1"?>
<!-- Generator: Adobe Illustrator 19.0.0, SVG Export Plug-In . SVG Version: 6.00 Build 0)  -->
<svg version="1.1" id="Layer_1" xmlns="http://www.w3.org/2000/svg" xmlns:xlink="http://www.w3.org/1999/xlink" x="0px" y="0px"
	 viewBox="0 0 235.356 235.356" style="enable-background:new 0 0 235.356 235.356;" xml:space="preserve">
<g>
	<g>
		<g>
			<path d="M140.024,54.729c4.456,5.04,20.984,21.996,43.536,24.444c1.92,0.208,3.828,0.304,5.712,0.304
				c23.552,0,43.568-15.112,44.472-15.808l1.612-1.236l-1.272-1.584c-0.752-0.936-18.756-23.024-44.728-25.84
				c-25.904-2.78-49.204,14.756-50.18,15.508l-0.392,0.3c-14.192,0.536-28.28-2.832-37.836-14.676
				c4.388-4.792,8.132-10.004,9.768-16.08c1.824-6.772,1.812-16.12-7.068-16.42c-1.252-0.044-1.88,0.888-1.904,1.86
				c-0.324,0.212-0.62,0.496-0.796,0.924c-3.912,9.42-5.584,18.32-5.716,26.992c-0.1,0.3-0.1,0.632,0,0.98
				c0,0.54-0.012,1.08,0,1.616c-3.436,3.568-7.02,7-10.492,10.52l-0.036,0.012c-1.836,0.584-45.184,14.688-67.968,46.916
				c-22.892,32.388-15.756,69.884-15.44,71.46l0.432,2.176l2.112-0.672c0.708-0.228,7.608-2.472,17.108-6.988
				c-1.456,1.904-2.764,3.972-3.732,6.372c-6.68,16.528,1.848,35.836,19.012,43.04c4.368,1.836,8.928,2.752,13.456,2.752
				c0.78,0,1.552-0.076,2.328-0.136c6.356,12.352,19.62,20.252,34.076,20.252c2.896,0,5.84-0.316,8.788-0.976
				c10.296-2.312,18.952-8.376,24.372-17.072c3.52-5.648,5.32-11.976,5.388-18.388c0.48,0.848,0.96,1.696,1.516,2.532
				c6.248,9.36,15.752,15.736,26.76,17.948c2.792,0.564,5.596,0.84,8.38,0.84c8.192,0,16.2-2.408,23.164-7.056
				c9.328-6.228,15.664-15.728,17.84-26.748c2.176-11.02-0.068-22.244-6.312-31.596c-6.164-9.236-14.868-14.5-25.172-15.232
				c-8.884-0.64-18.392,2.124-27.656,7.892c-5.024-5.988-8.964-13.06-12.636-19.78c-6.952-12.708-12.904-25.984-18.312-39.416
				c-4.2-10.432-8.204-21.02-11.288-31.848c-1.28-4.496-1.936-9.004-2.16-13.5C109.296,51.789,124.512,55.549,140.024,54.729z
				 M229.04,61.149l-16.36-1.776l7.16-6.66C224.04,56.029,227.176,59.153,229.04,61.149z M218.928,52.017l-7.74,7.196l-10.456-1.136
				l11.152-10.892C214.456,48.745,216.808,50.389,218.928,52.017z M210.868,46.589l-11.6,11.328l-12.548-1.36l13.832-14.84
				C204.26,43.057,207.708,44.741,210.868,46.589z M188.928,38.961c3.652,0.396,7.148,1.232,10.46,2.348l-14.072,15.096
				L171.9,54.949l16.124-16.048C188.328,38.925,188.628,38.925,188.928,38.961z M186.52,38.797l-16.068,15.992l-12.524-1.36
				l12.388-13.076C175.424,39.133,180.912,38.481,186.52,38.797z M168.228,40.909l-11.72,12.372l-12.288-1.336
				c-0.004-0.028-0.004-0.056-0.012-0.08C148.4,49.113,157.308,43.889,168.228,40.909z M144.196,53.081l84.616,9.184
				c-6.544,4.32-25.116,15.088-44.824,12.964c-19.368-2.1-34.444-16.176-39.868-21.924
				C144.148,53.229,144.176,53.157,144.196,53.081z M95.404,59.209c3.028,35.124-1.256,71.616-11.852,105.104
				c-1.424,0.216-2.872,0.484-4.348,0.816c-1.136,0.256-2.228,0.568-3.316,0.876c-3.224-4.144-7.78-7.804-13.528-10.736
				C83.816,126.625,93.236,94.357,95.404,59.209z M84.668,173.497c0.64-1.816,1.236-3.652,1.836-5.488
				c1.588-0.156,3.184-0.28,4.784-0.28c1.26,0,2.52,0.068,3.768,0.176c0.796,12.388-24.636,16.036-26.252,4.98
				c3.36-1.636,7.136-2.952,11.272-3.88c0.66-0.148,1.36-0.22,2.032-0.344c-0.424,1.26-0.828,2.532-1.268,3.784
				C79.992,174.853,83.824,175.893,84.668,173.497z M56.752,162.365c1.068-1.276,2.06-2.572,3.076-3.864
				c2.992,1.496,5.856,3.352,8.416,5.54c-5.784,8.66-24.964-1.236-21.132-9.764c2.916,0.484,5.932,1.324,9.012,2.54
				c-0.732,0.912-1.424,1.836-2.18,2.74C52.312,161.501,55.108,164.325,56.752,162.365z M87.476,49.417
				c1.428-1.428,2.908-2.86,4.44-4.308c-0.376,39.98-9,76.592-33.196,108.452c-0.028-0.012-0.056-0.028-0.084-0.04
				c-7.18-3.012-14.188-4.168-20.436-3.512c11.828-7.408,24.392-17.468,33.6-30.496C92.628,90.045,88.608,56.437,87.476,49.417z
				 M68.932,116.649c-0.132,0.192-0.24,0.384-0.376,0.576c-3.516,4.98-7.592,9.516-11.948,13.636l-10.884-25.46l12.448-17.608
				L68.932,116.649z M58.968,86.673l11.64-16.468l9.564,23.02c-2.24,7.344-5.588,14.932-10.468,22.244L58.968,86.673z
				 M55.724,131.677c-4.812,4.456-9.932,8.388-15.04,11.848l-7.388-20.544l11.66-16.492L55.724,131.677z M39.716,144.177
				c-4.296,2.86-8.54,5.38-12.56,7.556l-4.468-13.736l9.812-13.884L39.716,144.177z M80.696,91.529l-9.316-22.42l12.38-17.512
				C84.544,57.789,85.744,73.737,80.696,91.529z M19.968,95.757c18.36-25.976,51.624-40.108,62.404-44.164L4.764,161.389
				C3.6,152.269,1.488,121.901,19.968,95.757z M6.152,161.393l15.72-22.24l4.268,13.124C17.58,156.837,10.252,159.849,6.152,161.393
				z M49.04,203.573c0.328,1.368,0.76,2.688,1.236,3.98c-4.204,0.092-8.452-0.648-12.52-2.356
				c-15.168-6.372-22.74-23.372-16.868-37.9c2.292-5.672,6.056-9.632,11.184-11.768c2.848-1.188,6.06-1.776,9.508-1.776
				c1.408,0,2.864,0.128,4.344,0.324c-4.276,9.84,16.624,20.064,23.2,10.688c0.904,0.824,1.712,1.724,2.504,2.632
				c-8.7,3.232-15.492,8.28-19.464,14.652C48.252,188.325,47.172,195.773,49.04,203.573z M115.872,211.577
				c-4.852,7.788-12.624,13.22-21.876,15.296c-18.456,4.148-36.904-6.72-41.096-24.224c-1.64-6.844-0.752-13.072,2.632-18.5
				c2.68-4.296,6.88-7.924,12.204-10.708c2.216,12.36,29.044,7.876,28.468-5.436c10.76,1.232,20.548,6.768,23.636,19.66
				C121.796,195.841,120.388,204.329,115.872,211.577z M168.364,139.865c0.728,0,1.444,0.024,2.156,0.076
				c9.036,0.636,16.696,5.296,22.152,13.472c5.66,8.476,7.692,18.644,5.72,28.624s-7.708,18.58-16.152,24.216
				c-8.444,5.632-18.588,7.64-28.556,5.624c-9.976-2.008-18.584-7.78-24.244-16.26c-8.204-12.292-6.744-26.152,3.156-37.732
				c6.94,13.052,33.876-2.676,27.184-16.92C162.708,140.249,165.588,139.865,168.364,139.865z M146.32,152.745
				c1.944,1.636,4.764-1.16,2.808-2.808c-1.148-0.968-2.232-2.008-3.28-3.084c4.228-2.552,8.556-4.444,12.816-5.604
				c6.608,13.46-19.488,27.676-25.252,15.708c2.524-2.792,5.544-5.44,9.056-7.892C143.696,150.357,144.964,151.605,146.32,152.745z
				 M99.488,61.265c2.368,8.008,5.508,16.084,8.884,24.468c5.396,13.404,11.296,26.652,18.172,39.368
				c3.832,7.088,7.992,14.612,13.272,20.992c-12.596,8.928-19.384,20.248-19.716,31.796c-6.076-10.048-17.684-15.152-32.256-14.056
				C97.988,131.081,102.104,95.581,99.488,61.265z M104.664,7.777c7.884,1.544-0.328,17.324-2.536,20.296
				c-1.036,1.396-2.18,2.708-3.316,4.02C99.352,23.853,101.404,15.697,104.664,7.777z"/>
			<path d="M175.048,148.797c6.084,1.384,10.864,5.92,12.536,11.936c0.196,0.704,1.288,0.404,1.092-0.3
				c-1.776-6.376-6.868-11.256-13.328-12.728C174.64,147.541,174.336,148.633,175.048,148.797z"/>
			<path d="M188.888,165.925c0.116,0.72,1.208,0.412,1.092-0.3c-0.072-0.44-0.144-0.88-0.216-1.324
				c-0.116-0.72-1.208-0.412-1.092,0.3C188.744,165.045,188.816,165.485,188.888,165.925z"/>
		</g>
	</g>
</g>
<g>
</g>
<g>
</g>
<g>
</g>
<g>
</g>
<g>
</g>
<g>
</g>
<g>
</g>
<g>
</g>
<g>
</g>
<g>
</g>
<g>
</g>
<g>
</g>
<g>
</g>
<g>
</g>
<g>
</g>
</svg>
