<?xml version="1.0" encoding="iso-8859-1"?>
<!-- Generator: Adobe Illustrator 18.0.0, SVG Export Plug-In . SVG Version: 6.00 Build 0)  -->
<!DOCTYPE svg PUBLIC "-//W3C//DTD SVG 1.1//EN" "http://www.w3.org/Graphics/SVG/1.1/DTD/svg11.dtd">
<svg version="1.1" id="Capa_1" xmlns="http://www.w3.org/2000/svg" xmlns:xlink="http://www.w3.org/1999/xlink" x="0px" y="0px"
	 viewBox="0 0 340.746 340.746" style="enable-background:new 0 0 340.746 340.746;" xml:space="preserve">
<g>
	<path d="M340.663,259.861c0.48,13.92-1.25,27.92-2,41.88c-0.67,12.49-6.7,21.49-17.66,27.34c-10.51,5.61-21.19,9.77-33.61,8.92
		c-6.85-0.46-13.9,2.25-20.77,1.87c-16.49-0.93-33.04-2.05-49.36-4.52c-39.95-6.04-79.81-12.7-119.65-19.49
		c-24.68-4.2-47.1-13.77-67.26-28.96c-18.7-14.08-28.11-32.66-29.25-55.65c-1.39-28.35-2.13-56.7,1.94-84.92
		c1.88-13.09,7.41-24.45,16.34-34.37c11.94-13.27,25.71-24.41,40.73-33.71c15.55-9.62,32.98-13.66,51.48-13.07
		c3.73,0.11,7.61-2.01,11.28-3.46c10.12-4,11.51-3.64,19.5,7.42c4.3-5.32,8.2-9.37,11.15-14.03c2.31-3.67,4.01-7.94,5.02-12.17
		c8.09-34.17,54.06-49.18,79.37-38.93c5.24,2.12,9.45,6.86,14.71,8.84c5.36,2.02,11.69,1.41,17.14,3.26
		c6.66,2.25,11.38,6.62,9.95,15c-0.37,2.15,0.94,4.9,2.18,6.96c3.02,5.05,6.66,9.73,9.66,14.79c3.78,6.39,8.24,11.76,7.22,20.9
		c-0.74,6.72,4.85,14.28,8.1,21.24c2.37,5.05,2.69,11.57,9.54,13.88c1.29,0.43,2.86,4.45,2.2,5.49c-3.5,5.53,0.36,9.65,1.82,14.33
		c2.09,6.65,3.78,13.44,5.68,20.15c0.79,2.77,1.73,5.49,2.57,8.24c0.63,2.06,2.12,4.35,1.69,6.18c-4.43,19.03,2.42,36.87,5.3,55.16
		C337.843,232.171,340.183,246.001,340.663,259.861z M328.483,256.491c0.63-13.75-2.41-27.02-4.98-40.42
		c-2.6-13.57-4.11-27.36-6.2-41.83c-26.09,5.29-49.25,14.89-64.78,37.99c-2.64,3.93-5.97,7.48-9.41,10.77
		c-6.31,6.02-14,6.14-21.72,3.62c-7.12-2.32-10.06-7.69-7.66-14.73c1.63-4.79,4.1-9.59,7.29-13.49
		c16.79-20.55,38.11-34.61,63.67-41.7c9.45-2.61,19.33-3.68,29.38-5.53c-1.47-8.41-2.96-16.97-4.45-25.5
		c-9.79,3.1-18.76,6.29-27.92,8.79c-37.17,10.15-69.78,27.33-93.72,58.72c-4.85,6.37-10.9,12.07-17.25,16.97
		c-3.47,2.68-8.65,3.72-13.2,4.26c-5.13,0.6-8.8-2.73-8.65-7.86c0.18-6.12,0.04-13.17,2.94-18.11c5.7-9.72,12.16-19.68,20.51-27.03
		c29.14-25.64,64.46-39.3,101.46-49.13c8.36-2.22,16.73-4.4,25.18-6.62c-3.07-8.84-5.69-16.37-8.25-23.73
		c-8.2,2.83-15.65,5.82-23.34,7.96c-11.7,3.24-23.71,5.36-35.31,8.89c-44.27,13.45-81.4,37.35-109.05,75.11
		c-5.86,7.99-12.55,15.43-19.39,22.62c-2.93,3.07-6.98,5.48-10.96,7.06c-6.19,2.45-11.51-0.75-11.64-7.27
		c-0.09-4.59,1.32-9.45,3.06-13.78c6.3-15.63,16.4-28.77,28.2-40.59c22.86-22.91,49.35-40.75,78.1-55.44
		c9.48-4.84,18.2-11.36,27.99-15.34c15.67-6.36,31.85-11.52,49.07-12.25c3.51-0.14,6.97-1.44,10.84-2.3
		c-2.7-6.63-5.13-12.61-7.13-17.56c-11.06,1.16-21.25,2.07-31.39,3.33c-18.1,2.24-34.83,8.99-51.65,15.61
		c-8.13,3.2-16.75,5.13-25.12,7.73c-2.02,0.62-3.98,1.5-5.87,2.46c-6.01,3.08-11.97,6.25-19.23,10.06
		c-4.24,8.57-12.66,15.73-21.43,22.49c-6.42,4.95-13.27,9.35-19.55,14.47c-16.03,13.06-30.85,27.29-43.8,43.57
		c-4.68,5.87-11.24,10.49-17.59,14.72c-4.03,2.69-9.32,2.67-13.46-0.84c-4.13-3.51-4.61-8.24-3.09-13.17
		c0.86-2.8,2.02-5.53,3.24-8.21c5.4-11.85,12.9-22.21,21.67-31.84c13.55-14.87,29.51-26.61,46.36-37.32
		c2.84-1.81,5.55-3.81,8.33-5.71c-3.51-1.44-6.01-1.15-8.48-0.67c-20.45,3.96-35.81,16.75-50.87,29.79
		c-12.99,11.24-24.84,23.79-26.31,42.02c-1.59,19.78-2.25,39.65-2.75,59.49c-0.18,7.06,1.3,14.15,2.1,21.93
		c2.51-1.96,3.92-3.06,5.33-4.16c0.13,0.3,0.26,0.61,0.61,1.46c-3.44,8.79-8.19,18.14-0.2,27.98c6.4-10,8.31-21.81,16.33-30.4
		c-2.35,8.49-5.64,16.57-8.77,24.71c-6.44,16.78-6.62,13.24,5.28,25.35c2.83,2.88,5.94,5.52,9.16,7.98
		c5.99,4.58,12.34,8.59,19.58,10.91c4.25-14.41,9.88-26.99,16.56-39.07c0.69,0.29,1.39,0.58,2.09,0.87
		c-5.07,13.28-10.14,26.55-15.56,40.74c6.35,1.93,11.89,3.61,17.44,5.3c0-0.05-0.01-0.11-0.01-0.16c7.05,2.22,14.1,4.42,20.39,6.4
		c5.85-13.45,11.04-25.37,16.22-37.28c0.89,0.35,1.77,0.7,2.65,1.05c-4.49,11.85-8.99,23.71-13.71,36.16
		c3.95,0.83,7.76,1.62,11.52,2.41c5.72-11.64,11.06-22.54,16.4-33.43c0.81,0.36,1.62,0.72,2.43,1.08
		c-4.09,10.46-8.19,20.91-12.73,32.54c12.01,1.6,23.07,3.07,33.73,4.49c1.88-10.73,6.77-18.43,14.49-24.79
		c-3.81,8.11-7.62,16.23-12.05,25.66c12.5,1.55,23.3,6.54,34.29,5.89c6.5-11.77,12.45-22.54,18.4-33.31
		c0.85,0.43,1.71,0.85,2.57,1.28c-5.07,10.71-10.13,21.41-15.64,33.07c4.6,0.59,8.06,1.03,11.55,1.48
		c2.38-4.12,4.35-7.63,6.42-11.08c2.09-3.47,4.25-6.9,6.43-10.32c1.97-3.09,3.78-6.37,8.61-7.1c-4.99,9.56-9.98,19.12-15.34,29.38
		c5.45,0.87,9.4,1.52,13.35,2.12c18.26,2.8,36.5,4.72,54.73-0.26c2.08-0.57,4.62-1.03,6.53-0.37c8.85,3.06,15.7-1.73,22.82-5.36
		c7.48-3.8,11.63-9.92,12.04-18.45C326.933,286.641,327.783,271.571,328.483,256.491z M323.693,164.481
		c0.02-1.16,0.04-2.31,0.06-3.47c-5.65-3.14-11.68-4.56-18.46-3.47c-27.29,4.37-50.93,16.27-70.94,35.11
		c-5.26,4.95-9.72,11.09-13.26,17.4c-4.29,7.61-0.44,13.13,8.4,12.5c3.37-0.24,7.16-2.05,9.71-4.32c3.78-3.37,6.95-7.57,9.8-11.8
		c5.86-8.71,13.48-15.39,22.21-21.06c11.21-7.28,23.28-12.33,36.26-15.5C312.983,168.521,318.293,166.311,323.693,164.481z
		 M312.343,113.011c-16.03-2.43-29.43,0.54-41.98,5.37c-22.64,8.71-45.01,18.29-66.98,28.6c-13.73,6.44-25.67,16.15-35.44,27.84
		c-6.08,7.26-10.98,15.6-15.72,23.85c-2,3.47-2.37,8.75,1.86,10.82c2.59,1.27,7.63,0.66,9.94-1.17
		c6.87-5.44,13.78-11.22,19.14-18.07c17.69-22.6,39.49-39.64,65.93-50.53c11.19-4.61,22.81-8.2,34.37-11.83
		C293.253,124.821,303.143,122.191,312.343,113.011z M285.293,75.211c3.78-1.67,6.78-4.62,4.72-10.28
		c-2.19-0.31-4.73-1.31-7.04-0.91c-16.25,2.8-33.22,3.77-48.53,9.3c-40.8,14.74-77.92,36.44-110.35,65.61
		c-12.96,11.66-23.84,25.07-32.52,40.19c-3.28,5.71-6.53,11.61-3.65,21.1c4.14-2.69,7.96-4.23,10.47-6.97
		c6.95-7.57,13.62-15.45,19.92-23.57c11.56-14.87,23.93-28.79,39.07-40.27c31.48-23.85,67.15-37.55,105.42-45.68
		C270.563,82.081,277.963,78.451,285.293,75.211z M246.783,36.551c9.06-0.07,18.72-2.13,26.68-8.97c-7.4-9.3-16.62-8.27-25.72-6.95
		c-6.16,0.89-12.19,2.72-18.35,3.61c-21.24,3.1-40.07,11.93-57.49,24.04c-3.44,2.4-6.2,5.79-10.68,10.07
		c10.14,3.15,15.94-1.74,22.24-4.22C203.953,46.061,223.883,36.711,246.783,36.551z M237.223,16.851
		c-24.1-12.38-63.48,2.62-65,23.77C191.543,27.461,212.383,19.691,237.223,16.851z M127.923,80.841c3.74-3.83,5.1-8.79,3.05-14.89
		c-2.14,0.64-4.37,0.84-6.04,1.91c-5.5,3.54-10.7,7.56-16.2,11.11c-24.08,15.55-50,28.86-67.16,53.01
		c-6.56,9.21-12.1,19.2-17.38,29.23c-1.12,2.12-0.05,7.14,1.78,8.6c1.8,1.43,6.81,1.21,8.73-0.35c5.65-4.6,10.66-10.04,15.56-15.48
		c6.39-7.09,11.79-15.22,18.78-21.63c12.74-11.66,26.43-22.29,39.55-33.55C115.263,93.071,121.773,87.121,127.923,80.841z"/>
	<path style="fill:#754C24;" d="M79.793,300.361l0.01,0.01c0.06,0.05,0.32,0.25,0.32,0.25c-5.55-1.69-11.09-3.37-17.44-5.3
		c5.42-14.19,10.49-27.46,15.56-40.74c-0.7-0.29-1.4-0.58-2.09-0.87c-6.68,12.08-12.31,24.66-16.56,39.07
		c-7.24-2.32-13.59-6.33-19.58-10.91c-3.22-2.46-6.33-5.1-9.16-7.98c-11.9-12.11-11.72-8.57-5.28-25.35
		c3.13-8.14,6.42-16.22,8.77-24.71c-8.02,8.59-9.93,20.4-16.33,30.4c-7.99-9.84-3.24-19.19,0.2-27.98
		c-0.35-0.85-0.48-1.16-0.61-1.46c-1.41,1.1-2.82,2.2-5.33,4.16c-0.8-7.78-2.28-14.87-2.1-21.93c0.5-19.84,1.16-39.71,2.75-59.49
		c1.47-18.23,13.32-30.78,26.31-42.02c15.06-13.04,30.42-25.83,50.87-29.79c2.47-0.48,4.97-0.77,8.48,0.67
		c-2.78,1.9-5.49,3.9-8.33,5.71c-16.85,10.71-32.81,22.45-46.36,37.32c-8.77,9.63-16.27,19.99-21.67,31.84
		c-1.22,2.68-2.38,5.41-3.24,8.21c-1.52,4.93-1.04,9.66,3.09,13.17c4.14,3.51,9.43,3.53,13.46,0.84
		c6.35-4.23,12.91-8.85,17.59-14.72c12.95-16.28,27.77-30.51,43.8-43.57c6.28-5.12,13.13-9.52,19.55-14.47
		c8.77-6.76,17.19-13.92,21.43-22.49c7.26-3.81,13.22-6.98,19.23-10.06c1.89-0.96,3.85-1.84,5.87-2.46
		c8.37-2.6,16.99-4.53,25.12-7.73c16.82-6.62,33.55-13.37,51.65-15.61c10.14-1.26,20.33-2.17,31.39-3.33
		c2,4.95,4.43,10.93,7.13,17.56c-3.87,0.86-7.33,2.16-10.84,2.3c-17.22,0.73-33.4,5.89-49.07,12.25
		c-9.79,3.98-18.51,10.5-27.99,15.34c-28.75,14.69-55.24,32.53-78.1,55.44c-11.8,11.82-21.9,24.96-28.2,40.59
		c-1.74,4.33-3.15,9.19-3.06,13.78c0.13,6.52,5.45,9.72,11.64,7.27c3.98-1.58,8.03-3.99,10.96-7.06
		c6.84-7.19,13.53-14.63,19.39-22.62c27.65-37.76,64.78-61.66,109.05-75.11c11.6-3.53,23.61-5.65,35.31-8.89
		c7.69-2.14,15.14-5.13,23.34-7.96c2.56,7.36,5.18,14.89,8.25,23.73c-8.45,2.22-16.82,4.4-25.18,6.62
		c-37,9.83-72.32,23.49-101.46,49.13c-8.35,7.35-14.81,17.31-20.51,27.03c-2.9,4.94-2.76,11.99-2.94,18.11
		c-0.15,5.13,3.52,8.46,8.65,7.86c4.55-0.54,9.73-1.58,13.2-4.26c6.35-4.9,12.4-10.6,17.25-16.97
		c23.94-31.39,56.55-48.57,93.72-58.72c9.16-2.5,18.13-5.69,27.92-8.79c1.49,8.53,2.98,17.09,4.45,25.5
		c-10.05,1.85-19.93,2.92-29.38,5.53c-25.56,7.09-46.88,21.15-63.67,41.7c-3.19,3.9-5.66,8.7-7.29,13.49
		c-2.4,7.04,0.54,12.41,7.66,14.73c7.72,2.52,15.41,2.4,21.72-3.62c3.44-3.29,6.77-6.84,9.41-10.77
		c15.53-23.1,38.69-32.7,64.78-37.99c2.09,14.47,3.6,28.26,6.2,41.83c2.57,13.4,5.61,26.67,4.98,40.42
		c-0.7,15.08-1.55,30.15-2.27,45.23c-0.41,8.53-4.56,14.65-12.04,18.45c-7.12,3.63-13.97,8.42-22.82,5.36
		c-1.91-0.66-4.45-0.2-6.53,0.37c-18.23,4.98-36.47,3.06-54.73,0.26c-3.95-0.6-7.9-1.25-13.35-2.12
		c5.36-10.26,10.35-19.82,15.34-29.38c-4.83,0.73-6.64,4.01-8.61,7.1c-2.18,3.42-4.34,6.85-6.43,10.32
		c-2.07,3.45-4.04,6.96-6.42,11.08c-3.49-0.45-6.95-0.89-11.55-1.48c5.51-11.66,10.57-22.36,15.64-33.07
		c-0.86-0.43-1.72-0.85-2.57-1.28c-5.95,10.77-11.9,21.54-18.4,33.31c-10.99,0.65-21.79-4.34-34.29-5.89
		c4.43-9.43,8.24-17.55,12.05-25.66c-7.72,6.36-12.61,14.06-14.49,24.79c-10.66-1.42-21.72-2.89-33.73-4.49
		c4.54-11.63,8.64-22.08,12.73-32.54c-0.81-0.36-1.62-0.72-2.43-1.08c-5.34,10.89-10.68,21.79-16.4,33.43
		c-3.76-0.79-7.57-1.58-11.52-2.41c4.72-12.45,9.22-24.31,13.71-36.16c-0.88-0.35-1.76-0.7-2.65-1.05
		c-5.18,11.91-10.37,23.83-16.22,37.28c-6.29-1.98-13.34-4.18-20.39-6.4c-0.02-0.14-0.03-0.28-0.03-0.41
		c1.03-1.11,2.32-2.11,2.84-3.43c3.79-9.51,7.42-19.09,11.01-28.68c0.85-2.25,1.33-4.64,1.99-6.96
		c-8.24,11.96-16.97,23.65-15.84,39.07C79.983,300.151,79.883,300.251,79.793,300.361z M303.843,243.281
		c-22.06,5.13-43.75,1.9-66.79-3.67C249.493,256.461,289.483,258.241,303.843,243.281z M236.573,325.211
		c5-9.36,9.79-17.62,11.5-27.19C237.523,309.811,235.043,315.661,236.573,325.211z M222.373,242.081c0.2-0.84,0.4-1.68,0.61-2.53
		c-3.19-1.14-6.3-2.61-9.57-3.33c-6.07-1.34-12.48-1.52-18.32-3.46c-10.75-3.56-21.6-3.76-32.65-3.02
		c-3.66,0.25-7.41,0.78-10.99,0.27c-10.09-1.45-19.46-3.14-26.12-13.22c-4.33-6.55-12.72-10.4-22.15-11.82
		c0.91,6.15,4.72,8.74,8.53,11.5c4.38,3.19,8.22,7.21,12.85,9.93c6.55,3.84,13.31,7.93,20.53,9.83c6.48,1.71,13.76,1.14,20.6,0.59
		c10.5-0.85,20.33,1.57,30.32,4.15C204.663,243.201,213.583,244.891,222.373,242.081z M176.773,317.641
		c5.8-11.21,11.9-20.01,15.19-32.19C181.073,297.571,176.013,307.751,176.773,317.641z M141.503,310.481
		c4.36-9.07,8.16-17,11.97-24.93C143.003,295.081,139.983,301.791,141.503,310.481z M71.533,201.171
		c-8.67-7.14-15.4-12.8-24.4-14.71C53.803,192.201,59.213,200.011,71.533,201.171z M47.953,280.831
		c6.15-14.1,12.19-27.94,19.2-44.02C54.743,251.051,45.863,272.121,47.953,280.831z M35.833,268.531
		c5.32-12.17,10.65-24.33,15.97-36.5c-0.92-0.56-1.84-1.12-2.76-1.68c-5.22,12.37-14.34,23.09-15.66,37.11
		C34.193,267.821,35.013,268.171,35.833,268.531z"/>
	<path style="fill:#A67C52;" d="M323.753,161.011c-0.02,1.16-0.04,2.31-0.06,3.47c-5.4,1.83-10.71,4.04-16.22,5.39
		c-12.98,3.17-25.05,8.22-36.26,15.5c-8.73,5.67-16.35,12.35-22.21,21.06c-2.85,4.23-6.02,8.43-9.8,11.8
		c-2.55,2.27-6.34,4.08-9.71,4.32c-8.84,0.63-12.69-4.89-8.4-12.5c3.54-6.31,8-12.45,13.26-17.4
		c20.01-18.84,43.65-30.74,70.94-35.11C312.073,156.451,318.103,157.871,323.753,161.011z"/>
	<path style="fill:#A67C52;" d="M270.363,118.381c12.55-4.83,25.95-7.8,41.98-5.37c-9.2,9.18-19.09,11.81-28.88,14.88
		c-11.56,3.63-23.18,7.22-34.37,11.83c-26.44,10.89-48.24,27.93-65.93,50.53c-5.36,6.85-12.27,12.63-19.14,18.07
		c-2.31,1.83-7.35,2.44-9.94,1.17c-4.23-2.07-3.86-7.35-1.86-10.82c4.74-8.25,9.64-16.59,15.72-23.85
		c9.77-11.69,21.71-21.4,35.44-27.84C225.353,136.671,247.723,127.091,270.363,118.381z"/>
	<path style="fill:#A67C52;" d="M290.013,64.931c2.06,5.66-0.94,8.61-4.72,10.28c-7.33,3.24-14.73,6.87-22.49,8.52
		c-38.27,8.13-73.94,21.83-105.42,45.68c-15.14,11.48-27.51,25.4-39.07,40.27c-6.3,8.12-12.97,16-19.92,23.57
		c-2.51,2.74-6.33,4.28-10.47,6.97c-2.88-9.49,0.37-15.39,3.65-21.1c8.68-15.12,19.56-28.53,32.52-40.19
		c32.43-29.17,69.55-50.87,110.35-65.61c15.31-5.53,32.28-6.5,48.53-9.3C285.283,63.621,287.823,64.621,290.013,64.931z"/>
	<path d="M237.053,239.611c23.04,5.57,44.73,8.8,66.79,3.67C289.483,258.241,249.493,256.461,237.053,239.611z"/>
	<path style="fill:#A67C52;" d="M273.463,27.581c-7.96,6.84-17.62,8.9-26.68,8.97c-22.9,0.16-42.83,9.51-63.32,17.58
		c-6.3,2.48-12.1,7.37-22.24,4.22c4.48-4.28,7.24-7.67,10.68-10.07c17.42-12.11,36.25-20.94,57.49-24.04
		c6.16-0.89,12.19-2.72,18.35-3.61C256.843,19.311,266.063,18.281,273.463,27.581z"/>
	<path d="M248.073,298.021c-1.71,9.57-6.5,17.83-11.5,27.19C235.043,315.661,237.523,309.811,248.073,298.021z"/>
	<path d="M222.983,239.551c-0.21,0.85-0.41,1.69-0.61,2.53c-8.79,2.81-17.71,1.12-26.36-1.11c-9.99-2.58-19.82-5-30.32-4.15
		c-6.84,0.55-14.12,1.12-20.6-0.59c-7.22-1.9-13.98-5.99-20.53-9.83c-4.63-2.72-8.47-6.74-12.85-9.93
		c-3.81-2.76-7.62-5.35-8.53-11.5c9.43,1.42,17.82,5.27,22.15,11.82c6.66,10.08,16.03,11.77,26.12,13.22
		c3.58,0.51,7.33-0.02,10.99-0.27c11.05-0.74,21.9-0.54,32.65,3.02c5.84,1.94,12.25,2.12,18.32,3.46
		C216.683,236.941,219.793,238.411,222.983,239.551z"/>
	<path style="fill:#754C24;" d="M172.223,40.621c1.52-21.15,40.9-36.15,65-23.77C212.383,19.691,191.543,27.461,172.223,40.621z"/>
	<path d="M191.963,285.451c-3.29,12.18-9.39,20.98-15.19,32.19C176.013,307.751,181.073,297.571,191.963,285.451z"/>
	<path d="M153.473,285.551c-3.81,7.93-7.61,15.86-11.97,24.93C139.983,301.791,143.003,295.081,153.473,285.551z"/>
	<path style="fill:#A67C52;" d="M130.973,65.951c2.05,6.1,0.69,11.06-3.05,14.89c-6.15,6.28-12.66,12.23-19.33,17.96
		c-13.12,11.26-26.81,21.89-39.55,33.55c-6.99,6.41-12.39,14.54-18.78,21.63c-4.9,5.44-9.91,10.88-15.56,15.48
		c-1.92,1.56-6.93,1.78-8.73,0.35c-1.83-1.46-2.9-6.48-1.78-8.6c5.28-10.03,10.82-20.02,17.38-29.23
		c17.16-24.15,43.08-37.46,67.16-53.01c5.5-3.55,10.7-7.57,16.2-11.11C126.603,66.791,128.833,66.591,130.973,65.951z"/>
	<path d="M95.923,260.981c-0.66,2.32-1.14,4.71-1.99,6.96c-3.59,9.59-7.22,19.17-11.01,28.68c-0.52,1.32-1.81,2.32-2.84,3.43
		C78.953,284.631,87.683,272.941,95.923,260.981z"/>
	<path d="M80.113,300.461c0,0.05,0.01,0.11,0.01,0.16c0,0-0.26-0.2-0.32-0.25C79.903,300.401,80.013,300.431,80.113,300.461z"/>
	<path d="M80.083,300.051c0,0.13,0.01,0.27,0.03,0.41c-0.1-0.03-0.21-0.06-0.31-0.09l-0.01-0.01
		C79.883,300.251,79.983,300.151,80.083,300.051z"/>
	<path d="M47.133,186.461c9,1.91,15.73,7.57,24.4,14.71C59.213,200.011,53.803,192.201,47.133,186.461z"/>
	<path d="M67.153,236.811c-7.01,16.08-13.05,29.92-19.2,44.02C45.863,272.121,54.743,251.051,67.153,236.811z"/>
	<path d="M51.803,232.031c-5.32,12.17-10.65,24.33-15.97,36.5c-0.82-0.36-1.64-0.71-2.45-1.07c1.32-14.02,10.44-24.74,15.66-37.11
		C49.963,230.911,50.883,231.471,51.803,232.031z"/>
</g>
<g>
</g>
<g>
</g>
<g>
</g>
<g>
</g>
<g>
</g>
<g>
</g>
<g>
</g>
<g>
</g>
<g>
</g>
<g>
</g>
<g>
</g>
<g>
</g>
<g>
</g>
<g>
</g>
<g>
</g>
</svg>
