<?xml version="1.0" encoding="iso-8859-1"?>
<!-- Generator: Adobe Illustrator 19.0.0, SVG Export Plug-In . SVG Version: 6.00 Build 0)  -->
<svg version="1.1" id="Layer_1" xmlns="http://www.w3.org/2000/svg" xmlns:xlink="http://www.w3.org/1999/xlink" x="0px" y="0px"
	 viewBox="0 0 448 448" style="enable-background:new 0 0 448 448;" xml:space="preserve">
<g transform="translate(0 -1020.36)" shape-rendering="auto" image-rendering="auto" color-rendering="auto" color-interpolation="sRGB">
	<path style="fill:#464C63;" d="M287.981,1044.359c-46.576,0-84.123,30.995-110.656,72.843
		c-24.282,38.299-39.91,86.164-46.189,131.344l-22.781-34.781c-2.22-3.389-6.621-4.584-10.25-2.783l-27.718,13.813l-18.125-42.844
		c-1.29-3.045-4.32-4.982-7.626-4.875c-2.778,0.16-5.31,1.615-6.688,4.031c-67.29,117.135-34.846,217.969,18.062,248.783
		c30.118,17.674,69.566,19.807,109.376,2.813c9.424-4.021,18.869-9.188,28.25-15.377c26.518,17.602,59.006,27.031,94.344,27.031
		c46.35,0,88.253-15.834,117.562-45.688c29.31-29.859,45.642-73.574,41.938-127.406c-3.418-49.67-19.258-105.451-46-149.594
		c-26.742-44.141-65.291-77.312-113.499-77.312L287.981,1044.359z M287.981,1060.265L287.981,1060.265
		c40.862,0,74.738,28.205,99.813,69.594c25.077,41.391,40.478,95.326,43.718,142.406c3.445,50.074-11.446,88.648-37.406,115.094
		c-25.96,26.447-63.406,40.906-106.125,40.906c-30.064,0-56.64-8.416-79.282-21.969c18.618-14.842,36.69-34.391,53.531-58.75
		c5.714-8.264,11.331-16.893,16.718-26.313c2.249-4.965-0.393-9.857-3.704-11.297c-1.266-0.512-2.831-0.816-4.188-0.656
		l-50.062,6.094l-43.062-49c-1.029-1.152-1.818-1.553-3.776-2.465l-27.312-7.875c5.443-44.623,20.341-93.074,44.03-130.438
		c24.813-39.137,57.675-65.404,97.157-65.404L287.981,1060.265z"/>
	<path style="fill:#FFB900;" d="M45.12,1206.167l13.875,32.719c1.802,4.244,6.81,6.092,10.936,4.031l28.938-14.438l23.032,35.188
		c1.045,1.604,2.631,2.779,4.469,3.314l41.093,11.844l44.282,50.377c1.918,2.424,4.163,2.945,6.384,2.863
		c3.81-0.287,7.723-0.881,11.56-1.344l24.531-2.969c-29.744,45.961-62.984,76.686-95.125,90.404
		c-35.909,15.328-69.659,12.992-95.03-1.906c-39.557-23.039-69.83-106.443-18.938-209.906L45.12,1206.167z"/>
</g>
<g>
</g>
<g>
</g>
<g>
</g>
<g>
</g>
<g>
</g>
<g>
</g>
<g>
</g>
<g>
</g>
<g>
</g>
<g>
</g>
<g>
</g>
<g>
</g>
<g>
</g>
<g>
</g>
<g>
</g>
</svg>
