<?xml version="1.0" encoding="iso-8859-1"?>
<!-- Generator: Adobe Illustrator 19.0.0, SVG Export Plug-In . SVG Version: 6.00 Build 0)  -->
<svg version="1.1" id="Capa_1" xmlns="http://www.w3.org/2000/svg" xmlns:xlink="http://www.w3.org/1999/xlink" x="0px" y="0px"
	 viewBox="0 0 463.004 463.004" style="enable-background:new 0 0 463.004 463.004;" xml:space="preserve">
<path d="M390.21,268.148c-1.852-3.705-6.357-5.207-10.062-3.354l-24.845,12.422c-2.38,1.19-5.223,1.19-7.603,0l-12.736-6.368
	c-0.034-0.387-0.09-0.776-0.187-1.165c-5.205-20.819-14.457-34.968-27.499-42.055c-10.159-5.521-20-5.178-25.568-4.291
	c-3.865-8.67-7.82-16.794-11.469-24.079l29.905,14.953c0.039,0.019,0.079,0.032,0.118,0.051c0.181,0.087,0.366,0.166,0.556,0.238
	c0.078,0.03,0.155,0.06,0.233,0.087c0.182,0.063,0.369,0.116,0.557,0.165c0.083,0.021,0.164,0.046,0.247,0.065
	c0.195,0.043,0.394,0.075,0.594,0.103c0.074,0.01,0.146,0.027,0.22,0.035c0.012,0.001,0.023,0.004,0.035,0.005
	c0.265,0.028,0.526,0.041,0.786,0.042c0.002,0,0.004,0,0.006,0h0c0.003,0,0.006,0,0.01,0c0.343,0,0.679-0.031,1.012-0.077
	c0.055-0.008,0.11-0.014,0.165-0.023c0.336-0.054,0.666-0.127,0.987-0.224c0.034-0.01,0.067-0.023,0.101-0.034
	c0.319-0.102,0.63-0.223,0.93-0.365c0.024-0.012,0.049-0.021,0.074-0.033c0.307-0.149,0.599-0.323,0.882-0.512
	c0.029-0.019,0.061-0.032,0.09-0.052c1.075-0.739,26.424-18.488,35.02-52.334c1.02-4.015-1.408-8.096-5.423-9.115
	s-8.096,1.409-9.115,5.423c-3.861,15.204-11.916,26.644-18.559,34.001c-1.619-7.351-4.973-16.133-11.77-24.192
	c1.497-1.36,2.991-2.946,4.459-4.806c15.382-19.494,20.553-59.904,17.173-81.115c7.818-20.192,10.116-45.693-0.976-76.576
	c-1.401-3.898-5.694-5.924-9.594-4.523c-3.898,1.4-5.923,5.695-4.523,9.594c7.794,21.7,8.822,41.922,3.133,60.479
	c-8.455-1.965-18.689-2.087-27.755,4.096c-12.489,8.517-19.156,26.249-19.817,52.703c-0.007,0.266,0.002,0.529,0.022,0.788
	c-1.783,1.137-3.467,2.158-5.025,3.064v-19.665c0-6.452-2.614-12.303-6.838-16.554l6.046-12.092
	c1.853-3.705,0.351-8.21-3.354-10.062c-3.703-1.852-8.209-0.351-10.062,3.354l-6.042,12.084c-1.063-0.148-2.147-0.23-3.25-0.23
	s-2.187,0.082-3.25,0.23l-6.042-12.084c-1.852-3.705-6.356-5.207-10.062-3.354c-3.705,1.852-5.207,6.357-3.354,10.062l6.046,12.092
	c-4.224,4.251-6.838,10.102-6.838,16.554v19.665c-1.558-0.907-3.241-1.926-5.025-3.064c0.021-0.26,0.029-0.523,0.022-0.789
	c-0.661-26.454-7.329-44.186-19.817-52.703c-9.065-6.182-19.299-6.059-27.754-4.095c-5.689-18.557-4.661-38.78,3.133-60.48
	c1.4-3.898-0.625-8.193-4.523-9.594c-3.9-1.401-8.194,0.625-9.594,4.523c-11.092,30.883-8.794,56.384-0.976,76.576
	c-3.38,21.211,1.791,61.621,17.173,81.115c1.468,1.86,2.962,3.446,4.459,4.806c-6.797,8.059-10.15,16.84-11.769,24.191
	c-6.645-7.359-14.698-18.797-18.559-34c-1.02-4.014-5.096-6.445-9.115-5.423c-4.015,1.02-6.443,5.101-5.423,9.115
	c8.596,33.846,33.945,51.595,35.02,52.334c0.028,0.02,0.06,0.032,0.088,0.051c0.283,0.189,0.577,0.364,0.884,0.513
	c0.023,0.011,0.047,0.02,0.07,0.031c0.301,0.143,0.613,0.264,0.934,0.367c0.033,0.011,0.066,0.023,0.099,0.033
	c0.321,0.097,0.651,0.171,0.988,0.225c0.055,0.009,0.109,0.016,0.164,0.023c0.333,0.046,0.669,0.077,1.012,0.077
	c0.003,0,0.006,0,0.01,0h0c0.002,0,0.004,0,0.006,0c0.26-0.001,0.522-0.013,0.787-0.042c0.012-0.001,0.023-0.004,0.035-0.005
	c0.073-0.008,0.145-0.024,0.218-0.034c0.201-0.028,0.401-0.06,0.596-0.104c0.082-0.019,0.163-0.043,0.245-0.065
	c0.189-0.049,0.376-0.103,0.559-0.166c0.078-0.027,0.155-0.057,0.232-0.087c0.19-0.073,0.375-0.152,0.556-0.239
	c0.039-0.019,0.08-0.031,0.118-0.051l29.905-14.953c-3.649,7.286-7.604,15.41-11.469,24.08c-5.568-0.887-15.409-1.23-25.568,4.291
	c-13.042,7.087-22.294,21.236-27.499,42.055c-0.097,0.389-0.153,0.778-0.187,1.165l-12.736,6.368c-2.38,1.19-5.223,1.19-7.603,0
	l-24.845-12.422c-3.705-1.853-8.209-0.351-10.062,3.354s-0.351,8.21,3.354,10.062l24.845,12.423c3.291,1.645,6.9,2.467,10.509,2.467
	s7.219-0.823,10.509-2.468l12.894-6.447c-3.985,9.189-6.781,20.772-6.903,35.253c-0.473,55.76,36.455,85.223,66.127,108.897
	c13.926,11.111,25.953,20.707,30.611,30.412c0.015,0.03,0.034,0.056,0.049,0.086c0.06,0.121,0.121,0.242,0.188,0.36
	c0.057,0.101,0.119,0.199,0.181,0.298c0.043,0.068,0.081,0.14,0.126,0.207c0.005,0.008,0.011,0.015,0.017,0.022
	c0.016,0.023,0.034,0.044,0.05,0.067c0.077,0.11,0.159,0.217,0.242,0.323c0.063,0.08,0.125,0.161,0.191,0.238
	c0.047,0.055,0.091,0.111,0.14,0.165c0.037,0.041,0.077,0.077,0.115,0.118c0.012,0.013,0.024,0.024,0.036,0.037
	c0.067,0.07,0.133,0.14,0.202,0.208c0.101,0.098,0.206,0.192,0.314,0.285c0.014,0.012,0.028,0.026,0.042,0.038
	c0.034,0.029,0.064,0.061,0.098,0.089c0.033,0.027,0.069,0.05,0.103,0.077c0.099,0.079,0.202,0.154,0.306,0.229
	c0.104,0.074,0.208,0.146,0.316,0.216c0.016,0.01,0.031,0.022,0.047,0.032c0.024,0.015,0.046,0.033,0.071,0.048
	c0.051,0.031,0.106,0.057,0.158,0.087c0.131,0.076,0.264,0.149,0.4,0.217c0.043,0.022,0.083,0.048,0.126,0.069
	c0.037,0.018,0.075,0.029,0.113,0.046c0.01,0.005,0.02,0.01,0.03,0.015c0.036,0.016,0.071,0.036,0.107,0.052
	c0.13,0.057,0.263,0.105,0.396,0.154c0.078,0.029,0.155,0.059,0.233,0.085c0.087,0.029,0.174,0.056,0.262,0.082
	c0.058,0.017,0.117,0.03,0.175,0.045c0.028,0.007,0.056,0.014,0.084,0.022c0.089,0.023,0.177,0.049,0.267,0.069
	c0.128,0.027,0.26,0.046,0.39,0.066c0.078,0.013,0.154,0.028,0.232,0.038c0.058,0.007,0.116,0.018,0.174,0.024
	c0.098,0.01,0.199,0.01,0.298,0.016c0.159,0.01,0.318,0.026,0.477,0.026c0.002,0,0.004,0,0.005,0s0.004,0,0.005,0
	c0.159,0,0.318-0.016,0.477-0.026c0.099-0.006,0.2-0.006,0.298-0.016c0.058-0.006,0.116-0.017,0.175-0.024
	c0.078-0.01,0.154-0.025,0.231-0.038c0.131-0.021,0.263-0.039,0.391-0.067c0.089-0.019,0.178-0.046,0.267-0.069
	c0.028-0.007,0.057-0.014,0.085-0.022c0.058-0.016,0.117-0.028,0.174-0.045c0.088-0.026,0.176-0.053,0.263-0.082
	c0.078-0.026,0.155-0.056,0.233-0.085c0.133-0.049,0.267-0.098,0.397-0.154c0.036-0.016,0.07-0.035,0.105-0.051
	c0.011-0.005,0.021-0.01,0.032-0.015c0.037-0.017,0.076-0.029,0.113-0.046c0.044-0.021,0.083-0.047,0.126-0.069
	c0.136-0.069,0.269-0.141,0.4-0.217c0.052-0.03,0.107-0.056,0.158-0.087c0.023-0.014,0.045-0.032,0.068-0.047
	c0.017-0.01,0.032-0.022,0.048-0.033c0.107-0.069,0.212-0.141,0.316-0.216c0.104-0.074,0.206-0.15,0.306-0.229
	c0.034-0.027,0.07-0.05,0.103-0.077c0.034-0.028,0.063-0.06,0.097-0.088c0.015-0.013,0.029-0.027,0.044-0.04
	c0.107-0.093,0.213-0.187,0.314-0.285c0.069-0.067,0.135-0.137,0.202-0.207c0.012-0.013,0.025-0.025,0.036-0.037
	c0.038-0.04,0.078-0.077,0.115-0.118c0.048-0.054,0.093-0.11,0.14-0.165c0.066-0.077,0.127-0.158,0.19-0.238
	c0.083-0.107,0.165-0.213,0.242-0.324c0.016-0.023,0.034-0.043,0.05-0.066c0.005-0.008,0.012-0.015,0.018-0.023
	c0.045-0.066,0.083-0.138,0.125-0.206c0.062-0.099,0.125-0.198,0.182-0.3c0.067-0.117,0.127-0.238,0.188-0.359
	c0.015-0.03,0.035-0.056,0.049-0.086c4.659-9.706,16.686-19.301,30.611-30.412c29.672-23.674,66.6-53.137,66.127-108.897
	c-0.123-14.481-2.918-26.064-6.903-35.253l12.894,6.447c3.291,1.645,6.9,2.467,10.509,2.467s7.219-0.823,10.509-2.468l24.845-12.422
	C390.561,276.358,392.063,271.853,390.21,268.148z M300.336,240.928c6.719,3.737,12.124,10.678,16.148,20.68l-9.628-4.814
	c-0.352-0.176-0.713-0.312-1.076-0.429c-5.641-3.972-10.731-6.178-13.708-7.259c-1.347-3.818-2.773-7.595-4.252-11.313
	C291.224,237.748,295.721,238.361,300.336,240.928z M211.112,196.209c0.623-1.224,1.219-2.397,1.787-3.519
	c4.579,29.778,11.103,80.747,11.103,110.813v60.894l-9.315,9.315c-11.504-8.819-39.685-34.113-39.685-70.209
	C175.002,267.206,197.607,222.763,211.112,196.209z M240.002,143.458c0,0.028,0,0.056,0,0.085v21.364
	c-0.513,1.443-0.827,2.945-1.093,4.235c-0.56,2.711-1.271,6.626-2.055,11.322c-1.71,10.233-3.607,23.097-5.352,36.275
	c-1.745-13.178-3.642-26.042-5.352-36.275c-0.785-4.696-1.495-8.611-2.055-11.322c-0.266-1.29-0.58-2.791-1.093-4.235v-29.904h17
	V143.458z M239.002,364.396v-60.894c0-30.065,6.524-81.035,11.103-110.813c0.568,1.122,1.165,2.295,1.787,3.519
	c13.505,26.554,36.11,70.998,36.11,107.293c0,36.102-28.188,61.396-39.684,70.209L239.002,364.396z M295.066,194.899l-36.088-18.043
	c-2.127-4.406-3.725-8.023-3.977-9.542v-8.338c0.156,0.011,0.31,0.027,0.468,0.028c0.629,0.441,1.866,2.203,2.697,3.386
	c3.313,4.717,8.857,12.612,21.335,12.612c1.385,0,2.926-0.123,4.57-0.426C290.676,181.134,293.707,188.733,295.066,194.899z
	 M290.588,153.367c-3.523,4.465-7.149,6.635-11.086,6.635c-4.493,0-6.024-1.911-9.059-6.233c-2.027-2.886-4.827-6.863-9.437-8.724
	c9.513-5.378,23.902-14.883,36.784-28.984c2.407-2.635,4.811-5.498,7.146-8.579C303.335,124.338,298.528,143.305,290.588,153.367z
	 M288.273,87.005c3.576-2.439,8.104-3.221,13.508-2.362c-3.78,7.278-8.692,14.266-14.745,20.948
	c-3.659,4.04-7.486,7.669-11.281,10.905C277.446,101.742,281.771,91.439,288.273,87.005z M240.002,111.502v8.5h-17v-8.5
	c0-4.687,3.813-8.5,8.5-8.5S240.002,106.815,240.002,111.502z M174.731,87.005c6.503,4.435,10.827,14.737,12.519,29.492
	c-3.795-3.236-7.622-6.866-11.281-10.906c-6.053-6.682-10.965-13.67-14.745-20.948C166.627,83.784,171.155,84.566,174.731,87.005z
	 M158.069,107.482c2.335,3.081,4.739,5.944,7.146,8.579c12.881,14.101,27.271,23.606,36.784,28.984
	c-4.61,1.862-7.41,5.838-9.437,8.724c-3.035,4.322-4.566,6.233-9.059,6.233c-3.937,0-7.563-2.17-11.086-6.635
	C164.476,143.305,159.669,124.338,158.069,107.482z M183.502,175.002c12.478,0,18.022-7.895,21.335-12.612
	c0.832-1.184,2.07-2.948,2.699-3.388c0.157-0.001,0.311-0.015,0.466-0.026v8.336c-0.252,1.52-1.85,5.137-3.977,9.542l-36.075,18.037
	c1.364-6.169,4.394-13.771,10.981-20.316C180.576,174.879,182.117,175.002,183.502,175.002z M162.668,240.928
	c4.615-2.567,9.113-3.181,12.516-3.136c-1.479,3.717-2.904,7.495-4.252,11.313c-2.977,1.082-8.067,3.288-13.708,7.259
	c-0.364,0.117-0.724,0.253-1.076,0.429l-9.628,4.814C150.545,251.606,155.95,244.665,162.668,240.928z M203.485,416.611
	c-28.542-22.773-60.893-48.584-60.483-97.045c0.24-28.263,12.033-42.908,21.741-50.192c-2.922,11.521-4.74,23.077-4.74,34.128
	c0,53.541,49.421,85.045,51.525,86.36c1.226,0.767,2.604,1.14,3.973,1.14c1.938,0,3.858-0.75,5.306-2.197l3.197-3.197v48.313
	C218.063,428.248,211.03,422.631,203.485,416.611z M259.52,416.611c-7.545,6.02-14.579,11.637-20.518,17.311v-48.313l3.197,3.197
	c1.447,1.447,3.368,2.197,5.306,2.197c1.369,0,2.747-0.374,3.973-1.14c2.104-1.315,51.525-32.819,51.525-86.36
	c0-11.05-1.818-22.603-4.739-34.122c9.716,7.289,21.5,21.934,21.739,50.186C320.413,368.027,288.062,393.838,259.52,416.611z"/>
<g>
</g>
<g>
</g>
<g>
</g>
<g>
</g>
<g>
</g>
<g>
</g>
<g>
</g>
<g>
</g>
<g>
</g>
<g>
</g>
<g>
</g>
<g>
</g>
<g>
</g>
<g>
</g>
<g>
</g>
</svg>
