<?xml version="1.0" encoding="iso-8859-1"?>
<!-- Generator: Adobe Illustrator 19.0.0, SVG Export Plug-In . SVG Version: 6.00 Build 0)  -->
<svg version="1.1" id="Layer_1" xmlns="http://www.w3.org/2000/svg" xmlns:xlink="http://www.w3.org/1999/xlink" x="0px" y="0px"
	 viewBox="0 0 488.8 488.8" style="enable-background:new 0 0 488.8 488.8;" xml:space="preserve">
<circle style="fill:#FFD400;" cx="118.8" cy="83.2" r="83.2"/>
<path style="fill:#FFB000;" d="M202,83.2c0,45.6-36.8,83.2-83.2,83.2s-83.2-37.6-83.2-83.2s36.8-68.8,83.2-68.8S202,36.8,202,83.2z"
	/>
<path style="fill:#B8D6DD;" d="M225.2,460.8c0,15.2-12,27.2-27.2,27.2H39.6c-15.2,0-27.2-12-27.2-27.2l27.2-328
	c0-15.2,12-27.2,27.2-27.2h104.8c15.2,0,27.2,12,27.2,27.2L225.2,460.8z"/>
<g>
	<path style="fill:#9FC3CC;" d="M211.6,296.8l-13.6-164c0-15.2-12-27.2-27.2-27.2h-104c-12,0-22.4,8-25.6,19.2L211.6,296.8z"/>
	<path style="fill:#9FC3CC;" d="M171.6,106.4c15.2,0,27.2,12,27.2,27.2l27.2,328c0,15.2-12,27.2-27.2,27.2H39.6
		c-15.2-0.8-27.2-12.8-27.2-28"/>
</g>
<path style="fill:#7FABB2;" d="M211.6,296.8l-13.6-164c0-15.2-12-27.2-27.2-27.2l-46.4,104L211.6,296.8z"/>
<path style="fill:#CEE7EA;" d="M198.8,429.6c0,12-8.8,21.6-20,21.6h-120c-11.2,0-20-9.6-20-21.6l20-264c0-12,8.8-21.6,20-21.6h78.4
	c11.2,0,20,9.6,20,21.6L198.8,429.6z"/>
<path style="fill:#B4D7D8;" d="M186.8,272l-8-105.6c0-12-8.8-21.6-20-21.6H80.4c-5.6,0-10.4,2.4-14.4,6.4L186.8,272z"/>
<path style="fill:#B8D6DD;" d="M178.8,166.4c0-12-8.8-21.6-20-21.6h-4L41.2,396l-2.4,33.6c0,12,8.8,21.6,20,21.6H178
	c11.2,0,20-9.6,20-21.6L178.8,166.4z"/>
<path style="fill:#9DC1C6;" d="M186.8,272l-8-105.6c0-12-8.8-21.6-20-21.6h-4l-29.6,65.6L186.8,272z"/>
<path style="fill:#E4F4F4;" d="M49.2,291.2L38.8,429.6c0,12,8.8,21.6,20,21.6H178c11.2,0,20-9.6,20-21.6l-9.6-138.4H49.2z"/>
<path style="fill:#D3EAE9;" d="M188.4,291.2h-100L41.2,396l-2.4,33.6c0,12,8.8,21.6,20,21.6H178c11.2,0,20-9.6,20-21.6L188.4,291.2z
	"/>
<polygon style="fill:#FFFFFF;" points="189.2,303.2 188.4,291.2 49.2,291.2 48.4,303.2 "/>
<polygon style="fill:#E4F4F4;" points="82.8,303.2 189.2,303.2 188.4,291.2 88.4,291.2 "/>
<path style="fill:#FFB000;" d="M213.2,109.6c0,8.8-7.2,16-16,16H40.4c-8.8,0-16-7.2-16-16l0,0c0-8.8,7.2-16,16-16h156.8
	C206,93.6,213.2,100.8,213.2,109.6L213.2,109.6z"/>
<path style="fill:#FFD400;" d="M197.2,93.6H40.4c-5.6,0-10.4,3.2-13.6,7.2c3.2,4.8,8,7.2,13.6,7.2h156.8c5.6,0,10.4-3.2,13.6-7.2
	C207.6,96.8,202.8,93.6,197.2,93.6z"/>
<circle style="fill:#D62D72;" cx="370" cy="83.2" r="83.2"/>
<path style="fill:#C61756;" d="M453.2,83.2c0,45.6-36.8,83.2-83.2,83.2c-45.6,0-83.2-36.8-83.2-83.2c0-45.6,36.8-68.8,83.2-68.8
	C415.6,14.4,453.2,36.8,453.2,83.2z"/>
<path style="fill:#B8D6DD;" d="M476.4,460.8c0,15.2-12,27.2-27.2,27.2H290.8c-15.2,0-27.2-12-27.2-27.2l27.2-328
	c0-15.2,12-27.2,27.2-27.2h104.8c15.2,0,27.2,12,27.2,27.2L476.4,460.8z"/>
<g>
	<path style="fill:#9FC3CC;" d="M462.8,296.8l-13.6-164c0-15.2-12-27.2-27.2-27.2H317.2c-12,0-22.4,8-25.6,19.2L462.8,296.8z"/>
	<path style="fill:#9FC3CC;" d="M422,106.4c15.2,0,27.2,12,27.2,27.2l27.2,328c0,15.2-12,27.2-27.2,27.2H290.8
		c-15.2,0-27.2-12-27.2-27.2"/>
</g>
<path style="fill:#7FABB2;" d="M462.8,296.8l-13.6-164c0-15.2-12-27.2-27.2-27.2l-46.4,104L462.8,296.8z"/>
<path style="fill:#CEE7EA;" d="M450,429.6c0,12-8.8,21.6-20,21.6H310c-11.2,0-20-9.6-20-21.6l20-264c0-12,8.8-21.6,20-21.6h78.4
	c11.2,0,20,9.6,20,21.6L450,429.6z"/>
<path style="fill:#B4D7D8;" d="M438,272l-8-105.6c0-12-8.8-21.6-20-21.6h-78.4c-5.6,0-10.4,2.4-14.4,6.4L438,272z"/>
<path style="fill:#B8D6DD;" d="M430,166.4c0-12-8.8-21.6-20-21.6h-4L292.4,396l-2.4,33.6c0,12,8.8,21.6,20,21.6h119.2
	c11.2,0,20-9.6,20-21.6L430,166.4z"/>
<path style="fill:#9DC1C6;" d="M438,272l-8-105.6c0-12-8.8-21.6-20-21.6h-4l-29.6,65.6L438,272z"/>
<path style="fill:#936435;" d="M300.4,291.2L290,430.4c0,12,8.8,21.6,20,21.6h119.2c11.2,0,20-9.6,20-21.6l-10.4-139.2H300.4z"/>
<path style="fill:#7C5529;" d="M439.6,291.2h-100L292.4,396l-2.4,33.6c0,12,8.8,21.6,20,21.6h119.2c11.2,0,20-9.6,20-21.6
	L439.6,291.2z"/>
<polygon style="fill:#B27742;" points="440.4,303.2 439.6,291.2 300.4,291.2 299.6,303.2 "/>
<polygon style="fill:#936435;" points="334,303.2 440.4,303.2 439.6,291.2 339.6,291.2 "/>
<path style="fill:#C61756;" d="M463.6,109.6c0,8.8-7.2,16-16,16h-156c-8.8,0-16-7.2-16-16l0,0c0-8.8,7.2-16,16-16h156.8
	C457.2,93.6,463.6,100.8,463.6,109.6L463.6,109.6z"/>
<path style="fill:#D62D72;" d="M448.4,93.6H291.6c-5.6,0-10.4,3.2-13.6,7.2c2.4,4.8,8,7.2,13.6,7.2h156.8c5.6,0,10.4-3.2,13.6-7.2
	C458.8,96.8,454,93.6,448.4,93.6z"/>
<g>
</g>
<g>
</g>
<g>
</g>
<g>
</g>
<g>
</g>
<g>
</g>
<g>
</g>
<g>
</g>
<g>
</g>
<g>
</g>
<g>
</g>
<g>
</g>
<g>
</g>
<g>
</g>
<g>
</g>
</svg>
