<?xml version="1.0" encoding="iso-8859-1"?>
<!-- Generator: Adobe Illustrator 19.0.0, SVG Export Plug-In . SVG Version: 6.00 Build 0)  -->
<svg xmlns="http://www.w3.org/2000/svg" xmlns:xlink="http://www.w3.org/1999/xlink" version="1.1" id="Capa_1" x="0px" y="0px" viewBox="0 0 465.001 465.001" style="enable-background:new 0 0 465.001 465.001;" xml:space="preserve" width="512" height="512">
<g>
	<path style="fill:#6ECDFB;" d="M257.64,133.041h-50.28c-11.7,0-21.17,9.48-21.17,21.17v64.05c0,11.4,9,20.66,20.28,21.13h52.06   c11.28-0.47,20.28-9.73,20.28-21.13v-64.05C278.81,142.521,269.34,133.041,257.64,133.041z"/>
	<path style="fill:#1895C2;" d="M258.53,239.391h-52.06c-29.72,10.68-50.99,39.1-50.99,72.49c0,42.54,34.49,77.02,77.02,77.02   s77.02-34.48,77.02-77.02C309.52,278.491,288.25,250.071,258.53,239.391z"/>
	<path style="fill:#591200;" d="M445.355,277.674c-0.985-36.431-9.373-62.156-9.729-63.233c-0.902-2.726-3.281-4.697-6.127-5.078   l-143.184-19.131v-7.438h118.081c3.261,0,6.148-2.107,7.143-5.213c0.332-1.035,8.124-25.737,8.804-59.569   c0.907-45.131-11.511-84.974-35.913-115.221c-2.6-3.225-7.323-3.729-10.546-1.128c-3.224,2.601-3.729,7.323-1.128,10.546   c22.389,27.753,33.357,63.101,32.599,105.061c-0.416,23.007-4.446,41.823-6.66,50.524H286.315v-6.696l71.057-13.564   c3.038-0.58,5.408-2.965,5.97-6.007c0.162-0.88,3.937-21.872,0.596-49.238c-4.466-36.594-19.69-67.161-44.026-88.398   c-3.12-2.723-7.857-2.401-10.583,0.72c-2.723,3.121-2.4,7.858,0.72,10.582c21.707,18.942,34.81,45.342,38.945,78.466   c2.208,17.687,1.132,32.71,0.284,40.149l-64.151,12.246c-3.523-11.847-14.507-20.514-27.482-20.514h-0.806v-18.146   c0-4.142-3.357-7.5-7.5-7.5s-7.5,3.358-7.5,7.5v18.146h-18.674v-18.146c0-4.142-3.357-7.5-7.5-7.5s-7.5,3.358-7.5,7.5v18.146   h-0.806c-12.975,0-23.959,8.667-27.482,20.514l-64.151-12.246c-0.849-7.444-1.924-22.465,0.284-40.149   c4.136-33.124,17.238-59.523,38.945-78.466c3.12-2.724,3.442-7.461,0.72-10.582c-2.725-3.121-7.462-3.442-10.583-0.72   c-24.336,21.237-39.561,51.804-44.026,88.398c-3.341,27.367,0.434,48.358,0.596,49.238c0.562,3.042,2.932,5.427,5.97,6.007   l71.057,13.564v6.696H66.312c-5.22-20.611-20.517-98.006,25.934-155.585c2.602-3.224,2.096-7.945-1.128-10.546   c-3.224-2.6-7.946-2.096-10.546,1.128c-24.402,30.247-36.82,70.09-35.913,115.221c0.68,33.832,8.472,58.534,8.804,59.569   c0.994,3.105,3.882,5.213,7.143,5.213h118.081v7.438L35.502,209.363c-2.846,0.38-5.225,2.352-6.127,5.078   c-0.356,1.077-8.744,26.802-9.729,63.233c-0.913,33.759,4.686,83.386,36.545,128.1c1.464,2.054,3.771,3.149,6.115,3.148   c1.505,0,3.025-0.452,4.346-1.393c3.373-2.403,4.159-7.087,1.756-10.46c-29.344-41.182-34.565-87.179-33.779-118.515   c0.648-25.875,5.379-46.35,7.704-54.972l136.354-18.218v6.658l-60.4,22.255c-2.555,0.941-4.397,3.192-4.817,5.881   c-0.217,1.389-5.267,34.53-1.58,78.51c3.425,40.859,15.43,98.952,53.172,143.667c1.483,1.758,3.603,2.663,5.735,2.663   c1.708,0,3.426-0.581,4.834-1.769c3.165-2.672,3.565-7.404,0.894-10.569c-35.11-41.597-46.383-96.305-49.656-134.875   c-2.831-33.353-0.34-60.766,0.861-71.002l52.456-19.328c1.62,4.811,4.48,9.048,8.213,12.33   c-24.7,15.152-40.412,42.37-40.412,72.097c0,46.602,37.914,84.516,84.516,84.516c46.603,0,84.516-37.914,84.516-84.516   c0-29.727-15.712-56.944-40.412-72.097c3.732-3.282,6.593-7.519,8.213-12.33l52.451,19.326   c2.687,23.141,11.814,134.078-48.79,205.879c-2.672,3.165-2.271,7.897,0.894,10.569c1.408,1.188,3.126,1.769,4.834,1.769   c2.133,0,4.252-0.905,5.735-2.663c37.742-44.715,49.747-102.808,53.172-143.667c3.687-43.98-1.363-77.121-1.58-78.51   c-0.42-2.689-2.263-4.94-4.817-5.881l-60.4-22.255v-6.658l136.354,18.218c2.326,8.626,7.056,29.098,7.704,54.972   c0.786,31.335-4.436,77.333-33.779,118.515c-2.403,3.373-1.617,8.057,1.756,10.46c1.32,0.94,2.841,1.393,4.346,1.393   c2.344,0,4.651-1.095,6.115-3.148C440.669,361.061,446.268,311.433,445.355,277.674z M302.016,311.885   c0,38.331-31.185,69.516-69.516,69.516s-69.516-31.185-69.516-69.516c0-29.253,18.493-55.55,46.019-65.436   c3.376-1.212,5.421-4.646,4.879-8.191c-0.542-3.545-3.519-6.211-7.102-6.361c-7.343-0.306-13.095-6.294-13.095-13.634v-63.455   c0-0.034,0-0.596,0-0.596c0-7.539,6.133-13.673,13.672-13.673h50.285c7.539,0,13.672,6.134,13.672,13.673v0.562   c0,0.034,0,63.489,0,63.489c0,7.316-5.716,13.286-13.025,13.627h-21.822c-4.143,0-7.5,3.358-7.5,7.5s3.357,7.5,7.5,7.5h20.686   C284.036,257.092,302.016,283.046,302.016,311.885z"/>
</g>















</svg>
