<?xml version="1.0" encoding="iso-8859-1"?>
<!-- Generator: Adobe Illustrator 19.0.0, SVG Export Plug-In . SVG Version: 6.00 Build 0)  -->
<svg version="1.1" id="Layer_1" xmlns="http://www.w3.org/2000/svg" xmlns:xlink="http://www.w3.org/1999/xlink" x="0px" y="0px"
	 viewBox="0 0 512 512" style="enable-background:new 0 0 512 512;" xml:space="preserve">
<g>
	<path style="fill:#3C1146;" d="M183.539,27.347h-46.486c-7.55,0-13.673-6.123-13.673-13.673S129.503,0,137.053,0h46.486
		c7.55,0,13.673,6.123,13.673,13.673S191.09,27.347,183.539,27.347z"/>
	<path style="fill:#3C1146;" d="M352.102,419.246c-1.175,0-2.346-0.018-3.511-0.052c-34.667-1.012-66.877-17.425-88.366-45.032
		c-21.924-28.163-30.061-64.278-22.327-99.082l14.922-67.147c3.589-16.16,17.659-27.448,34.215-27.448h130.137
		c16.553,0,30.623,11.287,34.215,27.446l14.922,67.148c10.198,45.892-7.568,93.58-45.263,121.495
		c-6.068,4.494-14.632,3.219-19.125-2.851c-4.494-6.068-3.219-14.63,2.851-19.125c29.023-21.494,42.699-58.229,34.841-93.588
		l-14.922-67.147c-0.789-3.552-3.882-6.033-7.52-6.033H287.032c-3.638,0-6.731,2.48-7.52,6.031l-14.92,67.149
		c-5.959,26.817,0.313,54.647,17.212,76.353c16.461,21.148,41.099,33.721,67.594,34.495c0.904,0.029,1.802,0.04,2.706,0.04
		c7.55,0,13.673,6.123,13.673,13.673S359.654,419.246,352.102,419.246z"/>
	<path style="fill:#3C1146;" d="M352.102,510.633c-7.55,0-13.673-6.123-13.673-13.673v-91.387c0-7.55,6.123-13.673,13.673-13.673
		c7.55,0,13.673,6.123,13.673,13.673v91.387C365.775,504.511,359.654,510.633,352.102,510.633z"/>
	<path style="fill:#3C1146;" d="M403.555,512H300.65c-7.55,0-13.673-6.123-13.673-13.673s6.123-13.673,13.673-13.673h102.905
		c7.55,0,13.673,6.123,13.673,13.673S411.106,512,403.555,512z"/>
</g>
<path style="fill:#D4A8B4;" d="M251.24,278.046l10.939-49.21c-3.09-13.564-9.927-26.13-19.963-36.152l-32.994-32.994
	c-7.684-7.698-12.005-18.131-12.005-29.001V32.816h-73.836v97.873c0,10.87-4.321,21.303-12.019,29.001l-32.994,32.994
	c-14.877,14.877-22.78,35.332-21.754,56.348l0.451,9.394h78.091c13.887,0,25.142,11.257,25.142,25.142v63.203
	c0,13.887-11.257,25.142-25.142,25.142h-72.58l4.581,94.182c0.861,17.693,15.464,31.613,33.185,31.613h119.915
	c17.721,0,32.324-13.919,33.185-31.613l5.797-119.313C249.311,326.272,245.865,302.289,251.24,278.046z"/>
<path style="fill:#3C1146;" d="M220.256,511.379H100.342c-25.048,0-45.624-19.601-46.842-44.621l-4.582-94.182
	c-0.182-3.737,1.176-7.386,3.756-10.096c2.582-2.709,6.16-4.243,9.901-4.243h72.58c6.324,0,11.469-5.145,11.469-11.469v-63.203
	c0-6.325-5.145-11.471-11.469-11.471H57.064c-7.297,0-13.308-5.729-13.657-13.018l-0.45-9.394
	c-1.21-24.794,8.173-49.098,25.741-66.67l32.995-32.995c5.167-5.166,8.013-12.032,8.013-19.333V32.812
	c0-7.55,6.123-13.673,13.673-13.673h73.836c7.55,0,13.673,6.123,13.673,13.673v97.873c0,7.299,2.844,14.167,8.008,19.342
	l32.985,32.984c11.751,11.736,19.922,26.532,23.626,42.784c0.45,1.974,0.455,4.025,0.016,6.005l-10.939,49.21
	c-4.519,20.383-2.114,41.068,6.958,59.811c0.997,2.059,1.46,4.336,1.35,6.621l-5.797,119.313
	C265.88,491.779,245.304,511.379,220.256,511.379z M76.929,385.585l3.885,79.844c0.507,10.433,9.086,18.604,19.527,18.604h119.915
	c10.442,0,19.02-8.172,19.527-18.604l5.633-115.938c-10.526-23.469-13.132-49.114-7.526-74.403l10.236-46.056
	c-2.814-10.096-8.162-19.271-15.575-26.674l-33-33c-10.327-10.345-16.01-24.075-16.01-38.669v-84.2H137.05v84.2
	c0,14.604-5.689,28.338-16.022,38.669l-32.995,32.994c-11.27,11.271-17.659,26.555-17.833,42.399h64.952
	c21.403,0,38.816,17.413,38.816,38.817v63.203c0,21.403-17.412,38.816-38.816,38.816H76.929V385.585z"/>
<g>
</g>
<g>
</g>
<g>
</g>
<g>
</g>
<g>
</g>
<g>
</g>
<g>
</g>
<g>
</g>
<g>
</g>
<g>
</g>
<g>
</g>
<g>
</g>
<g>
</g>
<g>
</g>
<g>
</g>
</svg>
